<svg width="400" height="374" viewBox="0 0 400 374" fill="none" xmlns="http://www.w3.org/2000/svg">
<path fill-rule="evenodd" clip-rule="evenodd" d="M2.70532 3.05176e-05C78.571 58.1208 153.984 126.895 242.906 141.142C149.893 231.627 54.9444 69.8182 2.70532 3.05176e-05Z" fill="#B01114"/>
<path fill-rule="evenodd" clip-rule="evenodd" d="M0 83.0443C74.8291 114.386 150.861 154.428 230.485 147.642C163.01 239.877 55.9961 128.697 0 83.0443Z" fill="#809F1B"/>
<path fill-rule="evenodd" clip-rule="evenodd" d="M287.523 149.394C287.523 149.394 242.327 161.64 220.725 203.101C190.303 261.492 200.112 296.134 122.986 291.207C216.089 333.809 230.178 189.238 287.523 149.394Z" fill="#B01114"/>
<path fill-rule="evenodd" clip-rule="evenodd" d="M289.113 142.906C289.113 142.906 243.713 142.906 218.556 188.468C193.398 234.03 201.494 274.761 177.205 298.901C152.916 323.039 118.214 317.608 118.214 317.608C118.214 317.608 168.384 338.579 200.482 273.707C232.58 208.836 220.147 179.866 289.113 142.906Z" fill="#809F1B"/>
<path fill-rule="evenodd" clip-rule="evenodd" d="M257.305 137.475C257.305 137.475 266.412 136.116 273.498 128.875C280.584 121.634 279.715 118.617 279.715 118.617C279.715 118.617 274.077 111.978 273.354 102.475C272.631 92.9715 276.389 87.0872 276.389 87.0872C276.389 87.0872 278.847 102.928 286.945 107.153C295.042 111.377 295.042 110.02 295.042 110.02C295.042 110.02 305.885 109.115 312.391 122.542C318.898 135.969 316.584 144.117 318.61 148.642C320.635 153.168 327.719 168.556 327.719 168.556C327.719 168.556 312.103 149.849 309.356 147.133C306.608 144.418 305.523 128.865 295.476 127.521C285.425 126.174 279.136 139.586 257.305 137.475Z" fill="#B01114"/>
<path fill-rule="evenodd" clip-rule="evenodd" d="M296.414 148.864C296.414 148.864 304.077 147.808 310.44 153.39C316.801 158.971 319.98 173.002 319.98 173.002C319.98 173.002 312.173 165.911 310.727 160.932C309.282 155.955 305.522 151.429 296.414 148.864Z" fill="#B01114"/>
<path fill-rule="evenodd" clip-rule="evenodd" d="M228.475 373.999C228.475 373.999 293.657 374.702 335.112 335.22C389.656 283.274 358.731 221.469 367.392 182.308C354.493 197.474 334.701 229.073 340.567 257.437C309.347 237.291 276.321 247.775 261.152 281.745C340.86 233.762 342.033 361.831 228.475 373.999Z" fill="#B01114"/>
<path fill-rule="evenodd" clip-rule="evenodd" d="M323.978 234.972C330.587 234.972 335.977 229.347 335.977 222.451C335.977 215.554 330.586 209.929 323.978 209.929C317.37 209.929 311.978 215.554 311.978 222.451C311.978 229.347 317.369 234.972 323.978 234.972Z" fill="#809F1B"/>
<path fill-rule="evenodd" clip-rule="evenodd" d="M62.7274 148.827C46.8832 210.949 63.7205 279.922 112.144 326.55C160.565 373.175 227.801 385.161 285.875 363.706C229.342 382.368 163.813 368.825 115.716 322.51C67.6172 276.193 49.4282 209.121 62.7274 148.827Z" fill="#B01114"/>
<path fill-rule="evenodd" clip-rule="evenodd" d="M394.224 241.193C410.067 179.073 393.228 110.103 344.807 63.4773C296.385 16.8499 229.149 4.8643 171.073 26.3192C227.608 7.65748 293.135 21.1991 341.234 67.5157C389.335 113.832 407.522 180.901 394.224 241.193Z" fill="#809F1B"/>
</svg>
