<svg width="630" height="593" viewBox="0 0 630 593" fill="none" xmlns="http://www.w3.org/2000/svg">
<path opacity="0.06" fill-rule="evenodd" clip-rule="evenodd" d="M215.066 386.514C206.716 377.307 200.152 370.07 195.735 365.558C181.677 351.197 167.907 336.185 153.378 320.344C144.697 310.881 135.745 301.121 126.298 291.028C102.098 265.172 75.8336 238.471 48.4697 216.644C21.4599 195.1 -10.0188 175.501 -45.0292 167.828C-82.3137 159.656 -120.6 165.74 -156.251 190.39C-203.907 223.341 -219.237 273.267 -213.966 326.672C-209.022 376.771 -186.071 433.748 -154.091 494.503C-123.96 551.744 -110.748 594.06 -109.664 623.855C-108.711 650.042 -116.766 664.754 -133.201 676.118C-154.845 691.083 -160.268 720.747 -145.314 742.374C-130.361 764.002 -100.693 769.402 -79.0488 754.437C-32.7804 722.445 -12.4679 675.08 -14.4598 620.324C-16.3206 569.175 -37.3644 511.681 -69.7779 450.102C-100.342 392.036 -116.083 348.43 -119.16 317.253C-121.91 289.384 -114.588 277.344 -102.1 268.709C-88.8035 259.515 -77.6654 258.192 -65.4941 260.86C-51.0486 264.025 -33.0404 273.512 -10.9788 291.109C10.7287 308.424 33.1201 330.92 56.7133 356.127C64.6984 364.659 73.0192 373.724 81.4658 382.926C96.8574 399.694 112.667 416.918 127.624 432.197C129.776 434.396 133.966 439.028 139.838 445.521C164.627 472.93 219.394 533.483 277.346 583.937C313.492 615.406 354.506 646.363 394.743 664.992C432.917 682.665 485.534 695.878 530.77 664.6C591.993 622.269 589.947 549.033 579.032 492.267C569.788 444.192 550.363 388.746 531.81 335.785C527.428 323.276 523.094 310.906 518.955 298.804C514.87 286.863 510.777 275.074 506.746 263.466C487.554 208.195 469.78 157.005 461.101 112.812C455.904 86.3522 454.93 66.6217 457.183 52.8336C459.231 40.3052 463.282 35.6994 467.16 33.0175C475.735 27.0883 482.179 26.0333 487.748 26.3327C494.411 26.6908 503.123 29.2704 514.563 35.5782C526.02 41.8953 537.779 50.5577 550.656 60.7394C553.277 62.8121 556.075 65.0581 558.985 67.3938C568.827 75.295 579.947 84.2229 589.846 90.9424C591.826 92.2867 593.976 93.7707 596.286 95.3653C616.599 109.387 649.29 131.952 687.864 143.198C734.608 156.826 789.196 154.104 845.507 115.169L939.883 49.9149C961.526 34.9496 966.95 5.28556 951.996 -16.3415C937.043 -37.9685 907.374 -43.3689 885.731 -28.4036L791.356 36.8503C760.541 58.1566 736.058 58.0213 714.596 51.7644C691.643 45.0727 671.639 31.4123 649.953 16.6026C647.788 15.1238 645.606 13.6336 643.402 12.1376C636.929 7.74349 630.166 2.3191 621.294 -4.79684C617.818 -7.58409 614.02 -10.6307 609.788 -13.9768C596.141 -24.7676 579.3 -37.527 560.617 -47.8277C541.918 -58.1377 518.951 -67.372 492.932 -68.7706C465.82 -70.2279 438.581 -62.9825 413.008 -45.3009C382.74 -24.3721 368.27 6.29598 363.163 37.5421C358.262 67.5285 361.5 100.073 367.618 131.227C377.721 182.668 398.302 241.818 417.516 297.039C421.367 308.108 425.164 319.02 428.81 329.68C433.627 343.76 438.422 357.479 443.088 370.827C461.385 423.171 477.692 469.821 485.477 510.312C495.761 563.794 485.937 579.839 476.618 586.282C474.827 587.52 464.921 592.495 434.827 578.563C406.797 565.586 373.799 541.573 339.941 512.095C287.751 466.657 242.068 416.287 215.066 386.514Z" fill="white"/>
</svg>
